<svg width="605" height="200" viewBox="0 0 605 200" fill="none" xmlns="http://www.w3.org/2000/svg">
<path d="M157 58.5C155.833 61.1667 154.792 63.5 153.875 65.5C152.958 67.5 152.167 69.2083 151.5 70.625C150.75 72.2083 150.125 73.625 149.625 74.875C149.208 75.7917 148.667 77.0417 148 78.625C147.333 80.0417 146.5 81.9167 145.5 84.25C144.583 86.5 143.375 89.4167 141.875 93C141.125 89.9167 140.208 87.2083 139.125 84.875C138.042 82.5417 136.875 80.5 135.625 78.75C134.375 77 133.042 75.5833 131.625 74.5C130.292 73.3333 128.958 72.375 127.625 71.625C124.542 69.9583 121.292 69.0417 117.875 68.875C113.375 69.125 109.833 69.875 107.25 71.125C104.75 72.2917 102.917 73.6667 101.75 75.25C100.583 76.75 99.9583 78.3333 99.875 80C99.7917 81.5833 100 82.9167 100.5 84C100.917 85 102.375 86.1667 104.875 87.5C107.458 88.8333 110.542 90.375 114.125 92.125C117.792 93.7917 121.708 95.7083 125.875 97.875C130.042 99.9583 133.875 102.292 137.375 104.875C140.958 107.375 143.958 110.125 146.375 113.125C148.875 116.042 150.25 119.167 150.5 122.5C150.75 126.75 150.708 130.583 150.375 134C150.042 137.417 148.875 140.333 146.875 142.75C144.875 145.167 141.75 147.083 137.5 148.5C133.333 149.917 127.542 150.792 120.125 151.125C112.458 151.458 106.167 151.042 101.25 149.875C96.3333 148.708 92.3333 147.125 89.25 145.125C86.25 143.125 84 140.917 82.5 138.5C81.0833 136.083 80.0417 133.792 79.375 131.625C78.7083 129.375 78.25 127.458 78 125.875C77.75 124.208 77.3333 123.208 76.75 122.875C76.0833 122.458 75.4167 122.083 74.75 121.75C74.1667 121.417 73.5417 121.125 72.875 120.875C72.2083 120.542 71.5417 120.25 70.875 120L107.25 114.125C105.167 115.792 103.542 117.333 102.375 118.75C101.292 120.167 100.458 121.417 99.875 122.5C99.2083 123.75 98.75 124.917 98.5 126C98.3333 127.167 98.7083 128.625 99.625 130.375C100.542 132.125 101.792 133.833 103.375 135.5C105.042 137.083 106.958 138.417 109.125 139.5C111.292 140.583 113.542 141.042 115.875 140.875C118.792 140.625 121.167 139.917 123 138.75C124.833 137.5 126.208 135.958 127.125 134.125C128.125 132.292 128.708 130.292 128.875 128.125C129.042 125.958 128.833 123.833 128.25 121.75C127.75 119.583 126.917 117.583 125.75 115.75C124.583 113.833 123.208 112.25 121.625 111C120.208 110 118 109.042 115 108.125C112.083 107.208 108.792 106.208 105.125 105.125C101.542 104.042 97.8333 102.792 94 101.375C90.25 99.9583 86.8333 98.2083 83.75 96.125C80.75 94.0417 78.3333 91.5833 76.5 88.75C74.75 85.9167 74.0833 82.5 74.5 78.5C74.8333 75.0833 75.9167 72.25 77.75 70C79.6667 67.6667 82.0417 65.8333 84.875 64.5C87.7917 63.0833 91 62.0417 94.5 61.375C98.0833 60.7083 101.708 60.3333 105.375 60.25C109.125 60.0833 112.792 60.125 116.375 60.375C120.042 60.625 123.333 60.9167 126.25 61.25C129.167 61.5833 131.625 61.9167 133.625 62.25C135.708 62.5 137 62.6667 137.5 62.75C139.667 62.9167 141.833 62.875 144 62.625C145.917 62.4583 148 62.0833 150.25 61.5C152.583 60.8333 154.833 59.8333 157 58.5ZM155.47 71.25C157.97 71.5 160.053 71.7083 161.72 71.875C163.47 72.0417 164.887 72.1667 165.97 72.25C167.22 72.3333 168.22 72.375 168.97 72.375C169.72 72.4583 170.72 72.4583 171.97 72.375C173.053 72.2917 174.47 72.2083 176.22 72.125C177.97 71.9583 180.178 71.7083 182.845 71.375C182.262 72.2083 181.803 72.9583 181.47 73.625C181.137 74.2083 180.845 74.75 180.595 75.25L179.845 76.75C179.678 77.25 179.512 77.75 179.345 78.25C179.178 78.6667 179.012 79.1667 178.845 79.75C178.762 80.3333 178.678 80.9583 178.595 81.625H197.845L196.095 91.75L178.47 90.75C178.053 95 177.762 98.2917 177.595 100.625C177.428 102.958 177.262 104.667 177.095 105.75L176.845 108C176.595 111.167 176.345 114.625 176.095 118.375C175.845 122.042 175.762 125.458 175.845 128.625C175.928 131.792 176.22 134.458 176.72 136.625C177.22 138.708 178.095 139.75 179.345 139.75C180.595 139.75 181.762 139.417 182.845 138.75C183.928 138.083 184.845 137.292 185.595 136.375C186.428 135.458 187.053 134.542 187.47 133.625C187.887 132.625 188.095 131.875 188.095 131.375C188.095 130.875 187.97 130.292 187.72 129.625C187.303 128.375 186.553 126.792 185.47 124.875C187.887 125.458 190.012 126.042 191.845 126.625C192.762 126.958 193.595 127.292 194.345 127.625C195.178 127.958 196.137 128.333 197.22 128.75C198.137 129.167 199.303 129.667 200.72 130.25C202.137 130.833 203.803 131.542 205.72 132.375C203.887 132.708 202.553 133.25 201.72 134C201.22 134.333 200.845 134.708 200.595 135.125C200.012 136.042 199.345 137.292 198.595 138.875C197.845 140.375 196.72 141.875 195.22 143.375C193.72 144.875 191.678 146.208 189.095 147.375C186.595 148.542 183.22 149.208 178.97 149.375C174.553 149.542 171.178 148.792 168.845 147.125C166.595 145.458 164.928 143.542 163.845 141.375C162.845 139.125 162.262 136.917 162.095 134.75C161.928 132.583 161.803 131.125 161.72 130.375C161.637 129.625 161.637 127.75 161.72 124.75C161.803 121.75 161.928 118.458 162.095 114.875C162.262 111.208 162.428 107.708 162.595 104.375C162.762 100.958 162.845 98.4583 162.845 96.875C162.845 96.0417 162.887 95.1667 162.97 94.25C162.97 93.5 162.97 92.7083 162.97 91.875C163.053 90.9583 163.095 90.0833 163.095 89.25L144.97 89.125L144.22 82L162.47 82.5C162.303 81.5833 162.095 80.75 161.845 80C161.678 79.1667 161.512 78.5 161.345 78C161.095 77.4167 160.845 76.9167 160.595 76.5C160.262 76.0833 159.887 75.625 159.47 75.125C159.053 74.7083 158.512 74.1667 157.845 73.5C157.178 72.8333 156.387 72.0833 155.47 71.25ZM231.815 129.875C234.148 129.875 236.315 129.625 238.315 129.125C239.982 128.708 241.565 128.042 243.065 127.125C244.648 126.125 245.69 124.667 246.19 122.75C247.857 123.083 249.273 123.375 250.44 123.625C251.607 123.792 252.607 123.958 253.44 124.125C254.357 124.375 255.148 124.542 255.815 124.625C256.482 124.792 257.273 124.958 258.19 125.125C259.023 125.292 260.023 125.5 261.19 125.75C262.44 125.917 263.898 126.167 265.565 126.5C264.315 126.333 263.023 126.458 261.69 126.875C260.44 127.292 259.232 127.75 258.065 128.25C256.732 128.833 255.482 129.542 254.315 130.375C253.565 130.875 252.69 131.625 251.69 132.625C250.773 133.625 249.44 134.583 247.69 135.5C245.94 136.417 243.607 137.208 240.69 137.875C237.857 138.458 234.19 138.667 229.69 138.5C224.273 138.333 219.732 137.375 216.065 135.625C212.398 133.792 209.44 131.583 207.19 129C204.94 126.333 203.315 123.458 202.315 120.375C201.315 117.292 200.773 114.417 200.69 111.75C200.607 109.083 201.398 106.292 203.065 103.375C204.732 100.458 207.065 97.7917 210.065 95.375C213.148 92.9583 216.857 91 221.19 89.5C225.523 87.9167 230.273 87.125 235.44 87.125C238.44 87.125 241.19 87.5 243.69 88.25C246.273 88.9167 248.607 89.8333 250.69 91C252.857 92.1667 254.732 93.5 256.315 95C257.898 96.4167 259.232 97.875 260.315 99.375C261.398 100.958 262.315 102.625 263.065 104.375C263.732 105.875 264.273 107.583 264.69 109.5C265.107 111.417 265.232 113.375 265.065 115.375C258.732 115.542 253.607 115.667 249.69 115.75C245.857 115.833 242.857 115.875 240.69 115.875H235.065H230.815C229.315 115.875 227.357 115.917 224.94 116C222.523 116.083 219.565 116.208 216.065 116.375C216.482 119.708 217.523 122.292 219.19 124.125C220.94 125.875 222.773 127.208 224.69 128.125C226.857 129.125 229.232 129.708 231.815 129.875ZM220.565 107.375C223.232 107.542 225.44 107.667 227.19 107.75C229.023 107.833 230.523 107.917 231.69 108C232.94 108.083 233.94 108.125 234.69 108.125H237.815C239.898 108.125 243.773 108 249.44 107.75C249.19 104.083 248.398 101.292 247.065 99.375C245.815 97.4583 244.482 96.0417 243.065 95.125C241.398 94.125 239.565 93.5417 237.565 93.375C232.148 93.4583 228.107 94.5833 225.44 96.75C222.857 98.9167 221.232 102.458 220.565 107.375ZM301.285 129.875C303.618 129.875 305.785 129.625 307.785 129.125C309.452 128.708 311.035 128.042 312.535 127.125C314.118 126.125 315.16 124.667 315.66 122.75C317.327 123.083 318.743 123.375 319.91 123.625C321.077 123.792 322.077 123.958 322.91 124.125C323.827 124.375 324.618 124.542 325.285 124.625C325.952 124.792 326.743 124.958 327.66 125.125C328.493 125.292 329.493 125.5 330.66 125.75C331.91 125.917 333.368 126.167 335.035 126.5C333.785 126.333 332.493 126.458 331.16 126.875C329.91 127.292 328.702 127.75 327.535 128.25C326.202 128.833 324.952 129.542 323.785 130.375C323.035 130.875 322.16 131.625 321.16 132.625C320.243 133.625 318.91 134.583 317.16 135.5C315.41 136.417 313.077 137.208 310.16 137.875C307.327 138.458 303.66 138.667 299.16 138.5C293.743 138.333 289.202 137.375 285.535 135.625C281.868 133.792 278.91 131.583 276.66 129C274.41 126.333 272.785 123.458 271.785 120.375C270.785 117.292 270.243 114.417 270.16 111.75C270.077 109.083 270.868 106.292 272.535 103.375C274.202 100.458 276.535 97.7917 279.535 95.375C282.618 92.9583 286.327 91 290.66 89.5C294.993 87.9167 299.743 87.125 304.91 87.125C307.91 87.125 310.66 87.5 313.16 88.25C315.743 88.9167 318.077 89.8333 320.16 91C322.327 92.1667 324.202 93.5 325.785 95C327.368 96.4167 328.702 97.875 329.785 99.375C330.868 100.958 331.785 102.625 332.535 104.375C333.202 105.875 333.743 107.583 334.16 109.5C334.577 111.417 334.702 113.375 334.535 115.375C328.202 115.542 323.077 115.667 319.16 115.75C315.327 115.833 312.327 115.875 310.16 115.875H304.535H300.285C298.785 115.875 296.827 115.917 294.41 116C291.993 116.083 289.035 116.208 285.535 116.375C285.952 119.708 286.993 122.292 288.66 124.125C290.41 125.875 292.243 127.208 294.16 128.125C296.327 129.125 298.702 129.708 301.285 129.875ZM290.035 107.375C292.702 107.542 294.91 107.667 296.66 107.75C298.493 107.833 299.993 107.917 301.16 108C302.41 108.083 303.41 108.125 304.16 108.125H307.285C309.368 108.125 313.243 108 318.91 107.75C318.66 104.083 317.868 101.292 316.535 99.375C315.285 97.4583 313.952 96.0417 312.535 95.125C310.868 94.125 309.035 93.5417 307.035 93.375C301.618 93.4583 297.577 94.5833 294.91 96.75C292.327 98.9167 290.702 102.458 290.035 107.375ZM337.005 77.625C340.838 77.9583 344.213 78.2083 347.13 78.375C350.13 78.4583 352.63 78.5833 354.63 78.75C356.963 78.9167 359.005 79.0417 360.755 79.125C362.588 79.2083 364.922 79.2083 367.755 79.125C370.172 79.125 373.255 79.0833 377.005 79C380.838 78.8333 385.505 78.5833 391.005 78.25L390.005 95.625C387.588 98.0417 385.422 100.292 383.505 102.375C381.672 104.458 380.047 106.25 378.63 107.75C377.047 109.5 375.63 111.083 374.38 112.5C373.13 114 371.713 115.792 370.13 117.875C368.713 119.708 367.005 121.958 365.005 124.625C363.005 127.208 360.713 130.25 358.13 133.75C362.713 133.5 366.463 133.25 369.38 133C372.297 132.667 374.588 132.375 376.255 132.125C378.255 131.792 379.713 131.542 380.63 131.375C381.463 131.042 382.422 130.333 383.505 129.25C384.422 128.333 385.547 126.958 386.88 125.125C388.213 123.292 389.713 120.792 391.38 117.625C391.38 120.208 391.38 122.417 391.38 124.25C391.463 126 391.505 127.458 391.505 128.625V132V134.875C391.505 135.792 391.505 136.917 391.505 138.25C391.588 139.583 391.672 141.083 391.755 142.75C388.505 142.333 385.547 142.042 382.88 141.875C380.213 141.625 377.922 141.458 376.005 141.375C373.755 141.292 371.713 141.292 369.88 141.375C368.047 141.542 365.755 141.708 363.005 141.875C360.672 142.042 357.797 142.208 354.38 142.375C350.963 142.542 346.922 142.75 342.255 143L339.505 129.75C341.005 129.083 342.797 127.792 344.88 125.875C346.963 123.958 348.963 122 350.88 120C353.047 117.667 355.338 115.125 357.755 112.375C360.088 109.625 362.38 106.875 364.63 104.125C366.547 101.792 368.547 99.375 370.63 96.875C372.797 94.375 374.672 92.1667 376.255 90.25C371.755 90.4167 368.047 90.75 365.13 91.25C362.213 91.6667 359.922 92.0833 358.255 92.5C356.255 93 354.755 93.5833 353.755 94.25C352.838 95 351.713 96.125 350.38 97.625C349.213 98.875 347.797 100.583 346.13 102.75C344.463 104.833 342.547 107.542 340.38 110.875C340.38 108.125 340.338 105.667 340.255 103.5C340.172 101.25 340.088 99.375 340.005 97.875C339.838 96.125 339.713 94.5833 339.63 93.25C339.463 91.9167 339.255 90.4583 339.005 88.875C338.838 87.4583 338.547 85.8333 338.13 84C337.797 82.0833 337.422 79.9583 337.005 77.625ZM427.35 129.875C429.683 129.875 431.85 129.625 433.85 129.125C435.517 128.708 437.1 128.042 438.6 127.125C440.183 126.125 441.225 124.667 441.725 122.75C443.392 123.083 444.808 123.375 445.975 123.625C447.142 123.792 448.142 123.958 448.975 124.125C449.892 124.375 450.683 124.542 451.35 124.625C452.017 124.792 452.808 124.958 453.725 125.125C454.558 125.292 455.558 125.5 456.725 125.75C457.975 125.917 459.433 126.167 461.1 126.5C459.85 126.333 458.558 126.458 457.225 126.875C455.975 127.292 454.767 127.75 453.6 128.25C452.267 128.833 451.017 129.542 449.85 130.375C449.1 130.875 448.225 131.625 447.225 132.625C446.308 133.625 444.975 134.583 443.225 135.5C441.475 136.417 439.142 137.208 436.225 137.875C433.392 138.458 429.725 138.667 425.225 138.5C419.808 138.333 415.267 137.375 411.6 135.625C407.933 133.792 404.975 131.583 402.725 129C400.475 126.333 398.85 123.458 397.85 120.375C396.85 117.292 396.308 114.417 396.225 111.75C396.142 109.083 396.933 106.292 398.6 103.375C400.267 100.458 402.6 97.7917 405.6 95.375C408.683 92.9583 412.392 91 416.725 89.5C421.058 87.9167 425.808 87.125 430.975 87.125C433.975 87.125 436.725 87.5 439.225 88.25C441.808 88.9167 444.142 89.8333 446.225 91C448.392 92.1667 450.267 93.5 451.85 95C453.433 96.4167 454.767 97.875 455.85 99.375C456.933 100.958 457.85 102.625 458.6 104.375C459.267 105.875 459.808 107.583 460.225 109.5C460.642 111.417 460.767 113.375 460.6 115.375C454.267 115.542 449.142 115.667 445.225 115.75C441.392 115.833 438.392 115.875 436.225 115.875H430.6H426.35C424.85 115.875 422.892 115.917 420.475 116C418.058 116.083 415.1 116.208 411.6 116.375C412.017 119.708 413.058 122.292 414.725 124.125C416.475 125.875 418.308 127.208 420.225 128.125C422.392 129.125 424.767 129.708 427.35 129.875ZM416.1 107.375C418.767 107.542 420.975 107.667 422.725 107.75C424.558 107.833 426.058 107.917 427.225 108C428.475 108.083 429.475 108.125 430.225 108.125H433.35C435.433 108.125 439.308 108 444.975 107.75C444.725 104.083 443.933 101.292 442.6 99.375C441.35 97.4583 440.017 96.0417 438.6 95.125C436.933 94.125 435.1 93.5417 433.1 93.375C427.683 93.4583 423.642 94.5833 420.975 96.75C418.392 98.9167 416.767 102.458 416.1 107.375ZM525.695 54.25C527.278 54.3333 528.987 54.375 530.82 54.375C532.403 54.375 534.195 54.4167 536.195 54.5C538.278 54.5 540.445 54.4167 542.695 54.25C540.695 55.1667 538.945 56.5 537.445 58.25C535.945 60 534.737 61.75 533.82 63.5C532.653 65.5833 531.695 67.75 530.945 70C530.528 71.3333 530.195 73.7083 529.945 77.125C529.695 80.4583 529.487 84.375 529.32 88.875C529.237 93.375 529.195 98.125 529.195 103.125C529.195 108.125 529.237 112.917 529.32 117.5C529.403 122 529.528 126 529.695 129.5C529.862 133 530.07 135.458 530.32 136.875C530.653 138.542 531.07 140.125 531.57 141.625C531.987 142.958 532.528 144.333 533.195 145.75C533.862 147.083 534.695 148.167 535.695 149L522.945 154.75C522.278 153.833 521.737 152.875 521.32 151.875C520.903 150.958 520.57 150.125 520.32 149.375C519.987 148.458 519.778 147.625 519.695 146.875C519.528 145.875 519.362 144.792 519.195 143.625C519.028 142.375 518.82 141.208 518.57 140.125C518.403 138.958 518.278 138 518.195 137.25C518.112 136.5 518.112 136.042 518.195 135.875C518.278 135.708 517.778 136.458 516.695 138.125C515.612 139.708 513.987 141.583 511.82 143.75C509.737 145.833 507.153 147.875 504.07 149.875C500.987 151.792 497.528 153 493.695 153.5C489.778 154 486.153 153.25 482.82 151.25C479.57 149.25 476.778 146.458 474.445 142.875C472.112 139.208 470.32 135 469.07 130.25C467.903 125.417 467.445 120.5 467.695 115.5C467.862 112.167 468.612 109.208 469.945 106.625C471.278 103.958 472.945 101.667 474.945 99.75C477.028 97.75 479.278 96.0833 481.695 94.75C484.195 93.3333 486.612 92.1667 488.945 91.25C491.362 90.3333 493.612 89.6667 495.695 89.25C497.778 88.8333 499.445 88.5417 500.695 88.375C502.195 88.2917 503.903 88.5417 505.82 89.125C507.487 89.625 509.403 90.4583 511.57 91.625C513.82 92.7917 516.32 94.5417 519.07 96.875C518.57 88.5417 518.112 81.875 517.695 76.875C517.278 71.7917 516.862 67.9167 516.445 65.25C516.028 62.0833 515.653 59.9167 515.32 58.75C514.903 57.9167 514.362 57.0833 513.695 56.25C513.112 55.5833 512.362 54.9167 511.445 54.25C510.612 53.5 509.612 52.9167 508.445 52.5C510.612 52.9167 512.695 53.2083 514.695 53.375C516.695 53.5417 518.528 53.7083 520.195 53.875C522.112 54.0417 523.945 54.1667 525.695 54.25ZM494.32 100.875C492.737 101.458 491.445 102.458 490.445 103.875C489.528 105.292 488.778 107 488.195 109C487.612 110.917 487.195 113 486.945 115.25C486.778 117.417 486.653 119.542 486.57 121.625C486.57 123.625 486.57 125.458 486.57 127.125C486.57 128.792 486.57 130.042 486.57 130.875C486.57 131.375 486.653 132.292 486.82 133.625C487.07 134.875 487.57 136.208 488.32 137.625C489.07 138.958 490.112 140.167 491.445 141.25C492.862 142.333 494.737 142.875 497.07 142.875C498.987 142.708 501.028 142.042 503.195 140.875C505.112 139.875 507.278 138.292 509.695 136.125C512.195 133.875 514.862 130.667 517.695 126.5C517.528 123.833 517.403 121.625 517.32 119.875C517.32 118.125 517.278 116.708 517.195 115.625C517.112 114.375 517.07 113.375 517.07 112.625V110.75C517.07 110.25 517.07 109.708 517.07 109.125C517.07 108.542 517.112 108 517.195 107.5C514.862 105.833 512.778 104.417 510.945 103.25C509.195 102 507.445 101.083 505.695 100.5C504.028 99.8333 502.278 99.5417 500.445 99.625C498.695 99.625 496.653 100.042 494.32 100.875Z" fill="black"/>
<path opacity="0.5" d="M565.632 150.307L565.16 151.253L566.19 151.018C568.803 150.422 571.483 150 574.301 150C591.079 150 604.5 161.165 604.5 174.75C604.5 188.335 591.079 199.5 574.301 199.5H433.084C426.073 199.496 419.148 198.247 412.783 195.841C406.418 193.434 400.766 189.929 396.211 185.569C391.656 181.21 388.306 176.1 386.382 170.592C384.458 165.084 384.003 159.304 385.045 153.641C386.088 147.979 388.606 142.56 392.434 137.758C396.263 132.956 401.313 128.882 407.244 125.822C413.175 122.762 419.843 120.788 426.794 120.039C433.745 119.29 440.81 119.785 447.505 121.487L447.921 121.593L448.089 121.198C450.767 114.883 455.775 109.392 462.438 105.497C469.101 101.602 477.081 99.5036 485.272 99.5C494.075 99.5044 502.615 101.928 509.536 106.375C516.456 110.822 521.351 117.029 523.469 123.996L523.66 124.624L524.214 124.274C528.888 121.325 534.621 119.714 540.532 119.7C547.755 119.7 554.667 122.061 559.751 126.242C564.831 130.421 567.661 136.066 567.661 141.925C567.661 144.891 566.927 147.714 565.632 150.307Z" fill="#F5E0FD" stroke="black"/>
<path opacity="0.5" d="M190.157 50.5464V51.0464H190.657H190.674C207.189 51.0464 220.483 63.3871 220.5 78.5208C220.5 93.6535 207.189 105.994 190.692 105.994C187.407 105.994 184.26 105.486 181.3 104.581L180.824 104.435L180.676 104.911C175.977 120.084 160.862 131.227 142.862 131.227C134.091 131.227 126.014 128.55 119.475 124.075L119.178 123.872L118.891 124.089C110.312 130.586 99.343 134.5 87.3644 134.5C67.507 134.5 50.4066 123.763 42.4429 108.265L42.2852 107.958L41.9422 107.997C40.3873 108.172 38.836 108.267 37.2351 108.251C16.6504 108.012 0.228474 92.4021 0.503409 73.4971L0.503411 73.4969C0.761184 55.3357 16.2902 40.6513 35.7166 39.695L36.144 39.674L36.1892 39.2485C37.8885 23.2631 52.4955 10.7223 70.3496 10.7221C75.7419 10.7253 81.0559 11.9028 85.8593 14.1574L86.1994 14.317L86.4474 14.0348C93.6885 5.79187 104.749 0.5 117.166 0.5C133.714 0.5 147.836 9.87346 153.743 23.1308L153.906 23.4962L154.298 23.4175C156.274 23.021 158.337 22.8146 160.453 22.8146C176.916 22.8146 190.174 35.123 190.174 50.2078C190.174 50.2203 190.174 50.2332 190.173 50.2475C190.172 50.2721 190.17 50.3008 190.167 50.3385L190.167 50.3451C190.162 50.3978 190.157 50.4706 190.157 50.5464Z" fill="#F5E0FD" stroke="black"/>
<path opacity="0.5" d="M206.19 82.1745L206.191 82.1739C208.627 79.6929 211.044 74.7337 211.998 69.607C212.718 65.7351 212.624 61.6514 210.97 58.4321C217.094 63.6502 220.47 71.5359 220.5 78.6057C220.499 93.7163 207.247 106.036 190.825 106.036C187.555 106.036 184.422 105.529 181.475 104.625L180.998 104.479L180.851 104.956C176.172 120.107 161.124 131.232 143.206 131.232C134.473 131.232 126.432 128.559 119.922 124.091L119.625 123.887L119.337 124.105C110.797 130.592 99.8763 134.5 87.9511 134.5C68.1824 134.5 51.1578 123.779 43.2291 108.305L43.0714 107.997L42.7279 108.036C41.1797 108.211 39.6351 108.306 38.0411 108.29C27.9075 108.17 17.9937 104.233 10.5385 96.3242C14.6276 98.8054 19.8918 99.8828 25.0691 99.9403C28.922 99.9831 32.7668 99.463 36.1164 98.5132C39.4581 97.5656 42.345 96.1793 44.2494 94.4627L44.2494 94.4627L44.2542 94.4582C44.6342 94.1065 45.0538 93.739 45.4799 93.4693C45.9141 93.1945 46.2846 93.0672 46.5808 93.0919C46.8267 93.1176 47.1013 93.2594 47.4142 93.5526C47.7265 93.8453 48.0362 94.2504 48.3508 94.7227L48.3515 94.7237C51.7919 99.8618 61.749 109.762 79.1067 110.69L79.1068 110.69C96.763 111.631 108.231 105.186 113.273 101.515C113.84 101.102 114.332 100.756 114.793 100.509C115.252 100.263 115.645 100.136 116.013 100.129H116.013C116.469 100.122 116.642 100.128 116.946 100.249C117.301 100.39 117.804 100.679 118.865 101.301C124.392 104.555 136.304 110.07 148.978 106.454C161.126 102.988 166.886 94.3719 169.113 89.9224C169.73 88.7298 169.908 88.4156 170.287 88.2C170.576 88.0395 170.723 87.9687 170.989 87.9489C171.295 87.9263 171.771 87.973 172.691 88.1578L172.692 88.1581C176.122 88.8385 182.12 89.7325 188.435 89.2711C194.743 88.8102 201.442 86.9913 206.19 82.1745Z" fill="#9F6AB4" stroke="black"/>
<path opacity="0.5" d="M536.437 81.4349L536.478 80.7544C536.49 80.5613 536.505 80.3825 536.519 80.2105C536.545 79.8934 536.569 79.599 536.569 79.2796C536.563 72.0928 533.407 65.1333 527.655 59.6979C521.9 54.2604 513.94 50.7235 505.249 49.7634C496.558 48.8033 487.746 50.4877 480.454 54.494C473.163 58.5 467.901 64.5458 465.615 71.4896L465.458 71.9652L464.983 71.8079C460.735 70.402 456.2 69.6781 451.621 69.6762L536.437 81.4349ZM536.437 81.4349L537.099 81.2696M536.437 81.4349L537.099 81.2696M537.099 81.2696C541.047 80.2828 545.15 79.7805 549.276 79.7792C560.502 79.7792 571.253 83.4709 579.168 90.0212C587.079 96.5693 591.5 105.428 591.5 114.64C591.5 133.803 572.682 149.5 549.276 149.5C525.869 149.5 507.052 133.803 507.052 114.64C507.052 112.776 507.279 110.955 507.628 109.158L507.764 108.462L507.063 108.568C504.911 108.894 502.709 109.088 500.449 109.088C495.869 109.084 491.334 108.359 487.086 106.951L486.61 106.794M537.099 81.2696L486.61 106.794M486.61 106.794L486.454 107.27M486.61 106.794L486.454 107.27M486.454 107.27C484.391 113.566 479.876 119.145 473.581 123.133C467.285 127.121 459.568 129.29 451.62 129.294C442.013 129.294 432.814 126.135 426.045 120.532C419.278 114.931 415.5 107.357 415.5 99.4851C415.5 91.6131 419.278 84.0394 426.045 78.4387C432.815 72.8357 442.013 69.6763 451.62 69.6762L486.454 107.27Z" fill="#9F6AB4" stroke="black"/>
</svg>
